REM DIRINDEX 1\3,1\2\4,1\2\5,1\2\6
REM DIRNAME folder01,folder02,folder03,folder04,folder05,folder06
TITLE ""
FILE "020.mp3" MP3
  TRACK 01 AUDIO
    TITLE "4:cjc137_0801"
    INDEX 01 00:00:00
  TRACK 02 AUDIO
    TITLE "0:"
    INDEX 01 00:01:05
  TRACK 03 AUDIO
    TITLE "6:cjc137_0802"
    INDEX 01 00:01:11
  TRACK 04 AUDIO
    TITLE "0:"
    INDEX 01 00:01:73
  TRACK 05 AUDIO
    TITLE "5:cjc137_0803"
    INDEX 01 00:02:08
  TRACK 06 AUDIO
    TITLE "0:"
    INDEX 01 00:03:12
  TRACK 07 AUDIO
    TITLE "4:cjc137_0804"
    INDEX 01 00:04:21
  TRACK 08 AUDIO
    TITLE "0:"
    INDEX 01 00:05:42
  TRACK 09 AUDIO
    TITLE "6:cjc137_0805"
    INDEX 01 00:05:50
  TRACK 10 AUDIO
    TITLE "0:"
    INDEX 01 00:06:51
  TRACK 11 AUDIO
    TITLE "5:cjc137_0806"
    INDEX 01 00:06:55
  TRACK 12 AUDIO
    TITLE "0:"
    INDEX 01 00:08:01
  TRACK 13 AUDIO
    TITLE "4:cjc137_0807"
    INDEX 01 00:09:08
  TRACK 14 AUDIO
    TITLE "0:"
    INDEX 01 00:10:27
  TRACK 15 AUDIO
    TITLE "6:cjc137_0808"
    INDEX 01 00:10:31
  TRACK 16 AUDIO
    TITLE "0:"
    INDEX 01 00:11:31
  TRACK 17 AUDIO
    TITLE "5:cjc137_0809"
    INDEX 01 00:11:39
  TRACK 18 AUDIO
    TITLE "0:"
    INDEX 01 00:12:54
  TRACK 19 AUDIO
    TITLE "4:cjc137_0810"
    INDEX 01 00:13:61
  TRACK 20 AUDIO
    TITLE "0:"
    INDEX 01 00:14:62
  TRACK 21 AUDIO
    TITLE "6:cjc137_0811"
    INDEX 01 00:15:03
  TRACK 22 AUDIO
    TITLE "0:"
    INDEX 01 00:16:06
  TRACK 23 AUDIO
    TITLE "5:cjc137_0812"
    INDEX 01 00:16:14
  TRACK 24 AUDIO
    TITLE "0:"
    INDEX 01 00:17:14
  TRACK 25 AUDIO
    TITLE "4:cjc137_0813"
    INDEX 01 00:18:33
  TRACK 26 AUDIO
    TITLE "0:"
    INDEX 01 00:19:42
  TRACK 27 AUDIO
    TITLE "6:cjc137_0814"
    INDEX 01 00:19:54
  TRACK 28 AUDIO
    TITLE "0:"
    INDEX 01 00:20:63
  TRACK 29 AUDIO
    TITLE "5:cjc137_0815"
    INDEX 01 00:21:02
  TRACK 30 AUDIO
    TITLE "0:"
    INDEX 01 00:22:11
  TRACK 31 AUDIO
    TITLE "4:cjc137_0816"
    INDEX 01 00:23:24
  TRACK 32 AUDIO
    TITLE "0:"
    INDEX 01 00:24:35
  TRACK 33 AUDIO
    TITLE "6:cjc137_0817"
    INDEX 01 00:24:45
  TRACK 34 AUDIO
    TITLE "0:"
    INDEX 01 00:25:29
  TRACK 35 AUDIO
    TITLE "5:cjc137_0818"
    INDEX 01 00:25:43
  TRACK 36 AUDIO
    TITLE "0:"
    INDEX 01 00:26:54
  TRACK 37 AUDIO
    TITLE "4:cjc137_0819"
    INDEX 01 00:27:63
  TRACK 38 AUDIO
    TITLE "0:"
    INDEX 01 00:29:01
  TRACK 39 AUDIO
    TITLE "6:cjc137_0820"
    INDEX 01 00:29:05
  TRACK 40 AUDIO
    TITLE "0:"
    INDEX 01 00:30:08
  TRACK 41 AUDIO
    TITLE "5:cjc137_0821"
    INDEX 01 00:30:18
  TRACK 42 AUDIO
    TITLE "0:"
    INDEX 01 00:31:29
  TRACK 43 AUDIO
    TITLE "4:cjc137_0822"
    INDEX 01 00:32:37
  TRACK 44 AUDIO
    TITLE "0:"
    INDEX 01 00:33:44
  TRACK 45 AUDIO
    TITLE "6:cjc137_0823"
    INDEX 01 00:33:54
  TRACK 46 AUDIO
    TITLE "0:"
    INDEX 01 00:34:45
  TRACK 47 AUDIO
    TITLE "5:cjc137_0824"
    INDEX 01 00:34:53
  TRACK 48 AUDIO
    TITLE "0:"
    INDEX 01 00:35:63
  TRACK 49 AUDIO
    TITLE "4:cjc137_0825"
    INDEX 01 00:36:70
  TRACK 50 AUDIO
    TITLE "0:"
    INDEX 01 00:38:00
  TRACK 51 AUDIO
    TITLE "6:cjc137_0826"
    INDEX 01 00:38:10
  TRACK 52 AUDIO
    TITLE "0:"
    INDEX 01 00:39:09
  TRACK 53 AUDIO
    TITLE "5:cjc137_0827"
    INDEX 01 00:39:15
  TRACK 54 AUDIO
    TITLE "0:"
    INDEX 01 00:40:19
  TRACK 55 AUDIO
    TITLE "4:cjc137_0828"
    INDEX 01 00:41:32
  TRACK 56 AUDIO
    TITLE "0:"
    INDEX 01 00:42:49
  TRACK 57 AUDIO
    TITLE "6:cjc137_0829"
    INDEX 01 00:42:61
  TRACK 58 AUDIO
    TITLE "0:"
    INDEX 01 00:43:64
  TRACK 59 AUDIO
    TITLE "5:cjc137_0830"
    INDEX 01 00:44:01
  TRACK 60 AUDIO
    TITLE "0:"
    INDEX 01 00:45:18
  TRACK 61 AUDIO
    TITLE "4:cjc137_0831"
    INDEX 01 00:46:29
  TRACK 62 AUDIO
    TITLE "0:"
    INDEX 01 00:47:28
  TRACK 63 AUDIO
    TITLE "6:cjc137_0832"
    INDEX 01 00:47:38
  TRACK 64 AUDIO
    TITLE "0:"
    INDEX 01 00:48:48
  TRACK 65 AUDIO
    TITLE "5:cjc137_0833"
    INDEX 01 00:48:53
  TRACK 66 AUDIO
    TITLE "0:"
    INDEX 01 00:49:53
  TRACK 67 AUDIO
    TITLE "4:cjc137_0834"
    INDEX 01 00:50:62
  TRACK 68 AUDIO
    TITLE "0:"
    INDEX 01 00:51:65
  TRACK 69 AUDIO
    TITLE "6:cjc137_0835"
    INDEX 01 00:51:73
  TRACK 70 AUDIO
    TITLE "0:"
    INDEX 01 00:53:04
  TRACK 71 AUDIO
    TITLE "5:cjc137_0836"
    INDEX 01 00:53:11
  TRACK 72 AUDIO
    TITLE "0:"
    INDEX 01 00:54:11
  TRACK 73 AUDIO
    TITLE "4:cjc137_0837"
    INDEX 01 00:55:24
  TRACK 74 AUDIO
    TITLE "0:"
    INDEX 01 00:56:20
  TRACK 75 AUDIO
    TITLE "6:cjc137_0838"
    INDEX 01 00:56:29
  TRACK 76 AUDIO
    TITLE "0:"
    INDEX 01 00:57:21
  TRACK 77 AUDIO
    TITLE "5:cjc137_0839"
    INDEX 01 00:57:29
  TRACK 78 AUDIO
    TITLE "0:"
    INDEX 01 00:58:28
  TRACK 79 AUDIO
    TITLE "4:cjc137_0840"
    INDEX 01 00:59:36
  TRACK 80 AUDIO
    TITLE "0:"
    INDEX 01 01:00:43
  TRACK 81 AUDIO
    TITLE "6:cjc137_0841"
    INDEX 01 01:00:53
  TRACK 82 AUDIO
    TITLE "0:"
    INDEX 01 01:01:48
  TRACK 83 AUDIO
    TITLE "5:cjc137_0842"
    INDEX 01 01:01:56
  TRACK 84 AUDIO
    TITLE "0:"
    INDEX 01 01:02:67
